HIERARCHY
ROOT root
{
	OFFSET 0.000000 0.000000 0.000000
	CHANNELS 6 Xposition Yposition Zposition Zrotation Yrotation Xrotation
	JOINT lhip
	{
		OFFSET 0.058581 -0.082280 -0.017664
		CHANNELS 3 Zrotation Yrotation Xrotation
		JOINT lknee
		{
			OFFSET 0.043451 -0.386469 0.008037
			CHANNELS 3 Zrotation Yrotation Xrotation
			JOINT lankle
			{
				OFFSET -0.014790 -0.426874 -0.037428
				CHANNELS 3 Zrotation Yrotation Xrotation
				JOINT ltoe
				{
					OFFSET 0.041054 -0.060286 0.122042
					CHANNELS 3 Zrotation Yrotation Xrotation
					End Site
					{
						OFFSET 0.000000 0.000000 0.000000
					}
				}
			}
		}
	}
	JOINT rhip
	{
		OFFSET -0.060310 -0.090513 -0.013543
		CHANNELS 3 Zrotation Yrotation Xrotation
		JOINT rknee
		{
			OFFSET -0.043257 -0.383688 -0.004843
			CHANNELS 3 Zrotation Yrotation Xrotation
			JOINT rankle
			{
				OFFSET 0.019056 -0.420046 -0.034562
				CHANNELS 3 Zrotation Yrotation Xrotation
				JOINT rtoe
				{
					OFFSET -0.034840 -0.062106 0.130323
					CHANNELS 3 Zrotation Yrotation Xrotation
					End Site
					{
						OFFSET 0.000000 0.000000 0.000000
					}
				}
			}
		}
	}
	JOINT lowerback
	{
		OFFSET 0.004439 0.124404 -0.038385
		CHANNELS 3 Zrotation Yrotation Xrotation
		JOINT upperback
		{
			OFFSET 0.004488 0.137956 0.026820
			CHANNELS 3 Zrotation Yrotation Xrotation
			JOINT chest
			{
				OFFSET -0.002265 0.056032 0.002855
				CHANNELS 3 Zrotation Yrotation Xrotation
				JOINT lowerneck
				{
					OFFSET -0.013390 0.211636 -0.033468
					CHANNELS 3 Zrotation Yrotation Xrotation
					JOINT upperneck
					{
						OFFSET 0.010113 0.088937 0.050410
						CHANNELS 3 Zrotation Yrotation Xrotation
						End Site
						{
							OFFSET 0.000000 0.000000 0.000000
						}
					}
				}
				JOINT lclavicle
				{
					OFFSET 0.071702 0.114000 -0.018898
					CHANNELS 3 Zrotation Yrotation Xrotation
					JOINT lshoulder
					{
						OFFSET 0.122921 0.045205 -0.019046
						CHANNELS 3 Zrotation Yrotation Xrotation
						JOINT lelbow
						{
							OFFSET 0.255332 -0.015649 -0.022946
							CHANNELS 3 Zrotation Yrotation Xrotation
							JOINT lwrist
							{
								OFFSET 0.265709 0.012698 -0.007375
								CHANNELS 3 Zrotation Yrotation Xrotation
								End Site
								{
									OFFSET 0.000000 0.000000 0.000000
								}
							}
						}
					}
				}
				JOINT rclavicle
				{
					OFFSET -0.082954 0.112472 -0.023707
					CHANNELS 3 Zrotation Yrotation Xrotation
					JOINT rshoulder
					{
						OFFSET -0.113228 0.046853 -0.008472
						CHANNELS 3 Zrotation Yrotation Xrotation
						JOINT relbow
						{
							OFFSET -0.260127 -0.014369 -0.031269
							CHANNELS 3 Zrotation Yrotation Xrotation
							JOINT rwrist
							{
								OFFSET -0.269108 0.006794 -0.006027
								CHANNELS 3 Zrotation Yrotation Xrotation
								End Site
								{
									OFFSET 0.000000 0.000000 0.000000
								}
							}
						}
					}
				}
			}
		}
	}
}
MOTION
Frames: 16
Frame Time: 0.033333
-0.129524 -0.497527 0.989918 175.727043 -0.254888 87.167088 -1.403653 2.158827 2.115685 -5.013741 -2.149124 0.284740 5.479630 9.814104 -15.677820 0.000000 -0.000000 0.000000 -3.884360 -1.562101 -7.134417 -1.274122 -5.460141 24.732610 4.475656 -4.468582 -21.144917 0.000000 -0.000000 0.000000 -3.324205 5.001183 7.295458 -0.755858 2.625215 -2.947023 -1.876420 -0.439030 2.992715 -2.820754 -14.395832 13.602879 3.158085 -19.562440 2.869666 -18.904813 5.416736 2.949544 -61.855506 -6.795072 12.070609 10.934118 -28.726361 10.090607 8.000267 -2.917125 -7.724312 15.768262 3.865481 0.067565 70.391797 4.064718 18.064397 -3.227147 28.769703 15.998997 -1.823519 6.092108 -3.047727 
-0.133430 -0.497862 0.989450 176.180990 -0.318114 87.272467 -1.588791 2.060029 2.338418 -5.259496 -2.478800 -0.390897 5.338926 9.643485 -15.443209 0.000000 -0.000000 0.000000 -4.395334 -1.615978 -8.325034 -0.873454 -5.871511 26.617698 4.760351 -5.263772 -21.018542 0.000000 -0.000000 0.000000 -2.903210 3.619884 7.344916 -0.903900 2.202837 -3.359743 -2.046238 -0.054932 4.385164 -1.475899 -14.039796 9.295299 2.248218 -19.988200 3.462237 -18.487074 5.549010 1.713410 -61.796563 -7.291154 12.625186 9.944065 -29.172654 10.539058 8.636005 -3.193411 -7.132400 16.256123 3.652051 -1.115218 69.983917 4.097786 18.546941 -3.956427 27.762330 13.822858 -2.004319 5.847910 -2.023469 
-0.136938 -0.498627 0.989680 176.550281 -0.463275 87.485238 -2.050294 1.790633 2.321052 -5.198405 -2.705764 -0.783227 5.256054 9.684968 -15.266177 0.000000 -0.000000 0.000000 -4.839559 -1.401902 -9.762648 -0.646728 -6.195131 28.662687 4.929839 -6.249213 -20.862859 0.000000 -0.000000 0.000000 -2.757167 2.221173 7.114385 -0.978610 1.598500 -3.375637 -2.093240 0.545132 5.464684 -0.336316 -13.572950 5.623202 1.374261 -20.362406 3.341961 -18.440378 5.559244 0.460845 -61.280228 -7.708502 13.621199 9.565637 -29.615560 10.689998 8.495005 -3.430962 -7.735731 16.763840 3.819841 -2.488727 69.484137 4.059970 19.420312 -4.648064 26.295014 12.077867 -1.819901 5.581410 -1.308172 
-0.139257 -0.503974 0.990480 176.684369 -0.110301 88.183275 -1.754719 1.683313 1.151618 -5.467822 -2.522845 -0.476525 5.348164 9.524317 -15.194617 0.000000 -0.000000 0.000000 -4.228467 -0.922663 -13.021900 -0.710387 -5.893702 32.238746 4.751806 -7.108791 -21.151887 0.000000 -0.000000 0.000000 -2.765906 2.090046 7.034646 -0.408716 1.155585 -3.211764 -1.646543 0.134801 4.991468 -0.139351 -13.647210 5.399346 1.982354 -20.129384 1.993185 -18.342396 4.227911 0.686332 -60.977736 -8.469299 14.240319 9.244647 -30.083185 10.813723 9.647144 -2.772383 -7.825309 16.643881 4.182983 -2.500630 68.997580 3.927220 19.021138 -5.388811 25.459946 10.863064 -2.814684 5.066664 -1.693183 
-0.139895 -0.504552 0.990843 177.003904 -0.001720 87.979201 -1.646397 1.727454 1.365784 -5.531665 -2.762613 -0.516074 5.258450 9.450629 -15.164728 0.000000 -0.000000 0.000000 -4.067726 -0.697904 -13.246611 -0.722339 -5.903675 33.081427 4.534530 -7.236970 -21.401543 0.000000 -0.000000 0.000000 -2.680088 1.858051 7.327192 -0.276893 0.957637 -3.153877 -1.565520 0.068105 4.975094 -0.012115 -13.561628 5.309608 2.211722 -20.136951 1.647234 -18.180462 3.795533 0.739238 -60.854498 -8.704305 14.360782 8.951588 -30.360086 11.181328 9.755892 -2.733629 -7.948268 16.549544 4.294971 -2.567891 68.928097 3.772025 18.867745 -5.570127 25.339209 10.786385 -3.161179 5.043453 -1.568266 
-0.141547 -0.503907 0.991425 177.832526 -0.147119 87.061144 -2.001130 1.701165 2.525171 -5.348383 -3.718122 -0.770008 5.126120 9.800113 -15.058453 0.000000 -0.000000 0.000000 -4.291944 0.401648 -12.531970 -0.436494 -6.010672 34.145416 4.273699 -7.619716 -22.156374 0.000000 -0.000000 0.000000 -2.624364 1.187142 8.287538 -0.198761 0.666967 -3.051488 -1.501665 -0.100803 5.054635 0.128822 -13.370935 5.115745 2.513342 -20.121944 1.283178 -17.872037 2.755930 0.888867 -60.808949 -9.140236 14.390433 8.900225 -30.611020 11.184098 10.187586 -2.951980 -7.766867 16.377749 4.646662 -2.736670 68.804128 3.294146 18.543441 -5.723574 25.185396 10.885730 -4.566032 5.228059 -0.902535 
-0.141663 -0.504730 0.991795 178.213977 -0.121691 87.123976 -2.003641 1.542071 2.392644 -5.325023 -3.921862 -0.761870 5.077941 9.911993 -14.864758 0.000000 -0.000000 0.000000 -3.980821 1.054845 -13.004740 0.240639 -4.632871 35.221346 4.387610 -6.713637 -22.737703 0.000000 -0.000000 0.000000 -2.520382 0.932066 8.304028 0.032969 0.370064 -3.054406 -1.498338 -0.197913 5.018241 0.233860 -13.089488 5.068391 2.664341 -20.044799 0.745632 -17.860179 2.128140 0.872795 -60.351600 -9.464382 14.726908 8.448624 -31.166834 11.169819 11.043300 -2.952912 -7.742168 16.437393 4.678052 -2.680192 68.558804 2.936148 18.567989 -5.923157 25.243023 10.763941 -6.323736 5.396003 -0.362666 
-0.141582 -0.504016 0.991994 178.820582 -0.295146 86.596087 -2.232778 1.405748 3.121404 -5.194677 -4.500747 -1.011043 4.904911 10.211255 -14.773897 0.000000 -0.000000 0.000000 -3.751064 2.126040 -12.195386 0.474644 -3.644531 35.754124 4.289273 -6.655159 -23.502960 0.000000 -0.000000 0.000000 -2.492239 0.459724 8.657635 0.105781 0.055168 -3.004737 -1.514210 -0.204148 5.125608 0.336468 -12.861285 5.239454 2.841531 -19.902318 0.378567 -17.710602 1.571271 0.914394 -60.031919 -9.689689 14.879223 8.080689 -31.956661 11.185035 11.550005 -3.097384 -7.770050 16.464079 4.873303 -2.702650 68.383078 2.486791 18.513277 -6.064178 25.439358 10.554996 -7.827083 5.768692 0.061284 
-0.140434 -0.504943 0.991794 179.114107 -0.444910 86.763986 -2.296135 1.305514 2.920232 -5.212250 -4.440505 -1.093055 4.778341 10.060026 -14.586390 0.000000 -0.000000 0.000000 -3.591893 2.440120 -12.379085 0.293309 -3.201409 36.633928 4.216615 -6.688858 -24.165016 0.000000 -0.000000 0.000000 -2.434403 0.366655 8.305974 0.225339 -0.157349 -2.830331 -1.536847 -0.283445 4.977761 0.279911 -12.684743 5.473549 3.096500 -19.693720 -0.073570 -17.609647 1.259267 0.989204 -59.825215 -9.918462 15.142196 7.862698 -32.790336 11.250072 11.761544 -3.177220 -7.996562 16.316768 4.762508 -2.662854 68.386356 2.154566 18.524895 -6.143306 25.790676 10.541894 -8.234795 5.865015 -0.201928 
-0.139018 -0.505993 0.991813 179.410118 -0.716815 87.055974 -2.479551 1.162194 2.599706 -5.240640 -4.374744 -1.188516 4.651863 9.860922 -14.388840 0.000000 -0.000000 0.000000 -3.627190 2.694753 -12.414968 0.096021 -2.869750 37.145438 4.159603 -6.714170 -24.436427 0.000000 -0.000000 0.000000 -2.342493 0.123802 7.975852 0.182044 -0.336963 -3.070127 -1.648061 -0.215193 4.866732 0.254831 -12.590853 5.615408 3.035471 -19.487860 0.117494 -17.683319 1.198778 1.096965 -59.521617 -10.013572 15.343408 7.751631 -33.603794 11.334229 11.250082 -3.346459 -8.090039 16.370081 4.550524 -2.597707 68.276112 1.852458 18.566288 -6.059411 26.123958 10.634757 -6.988468 5.752643 -0.878688 
-0.136811 -0.506700 0.991762 179.654299 -1.001257 87.074740 -2.608575 1.119767 2.602322 -5.267707 -4.374963 -1.307455 4.480834 9.667139 -14.266936 0.000000 -0.000000 0.000000 -3.612373 2.911416 -11.771794 -0.053576 -2.312352 36.938856 4.265937 -6.267531 -24.177295 0.000000 -0.000000 0.000000 -2.256416 0.029582 7.601438 0.141252 -0.499417 -2.874910 -1.721901 -0.192128 4.752885 0.231864 -12.650829 5.591190 2.956505 -19.349117 0.024182 -17.748451 1.102030 1.118797 -59.445135 -10.057944 15.485052 7.828452 -34.217051 11.292800 10.887944 -3.735737 -8.190024 16.306093 4.445679 -2.649690 68.193623 1.641245 18.559315 -5.704543 26.419801 10.831874 -6.164460 5.891611 -1.568499 
-0.133783 -0.507666 0.991508 179.838599 -1.268023 87.360347 -2.668073 0.945446 2.192507 -5.314420 -4.221211 -1.238539 4.473368 9.511082 -14.130461 0.000000 -0.000000 0.000000 -3.595376 2.890136 -11.088466 -0.345934 -1.888164 35.573750 4.362292 -5.656507 -23.185540 0.000000 -0.000000 0.000000 -2.043730 0.019813 7.187301 -0.006433 -0.681229 -3.122836 -1.819433 -0.104330 4.547877 -0.064271 -12.792828 6.202775 3.327642 -19.148537 -0.114610 -17.795929 1.139396 1.355895 -59.420184 -9.946063 15.552586 7.618919 -34.775346 11.472109 10.909368 -3.870267 -8.229215 16.156559 4.427453 -2.337917 68.264519 1.481745 18.587262 -5.322593 26.551974 11.242952 -6.142472 6.124246 -2.126449 
-0.129901 -0.508710 0.991411 179.680709 -1.485196 87.785584 -2.649857 0.876318 1.723374 -5.267103 -3.835697 -1.315232 4.258735 9.340113 -13.980545 0.000000 -0.000000 0.000000 -3.439002 2.676711 -10.148416 -0.884740 -1.722491 32.629426 4.227333 -5.536243 -22.964321 0.000000 -0.000000 0.000000 -1.808965 0.289894 6.558882 -0.133674 -0.674592 -3.363384 -1.842810 -0.054597 4.441837 -0.350461 -12.912704 6.472145 3.401656 -19.013247 -0.125930 -17.932125 1.263720 1.457169 -59.647535 -9.861214 15.673710 7.487298 -34.829433 11.742612 10.807011 -3.934318 -8.247113 16.010270 4.393539 -2.055258 68.228586 1.413829 18.694766 -4.850247 26.661602 11.866883 -6.235899 6.120532 -2.641462 
-0.124981 -0.510341 0.991836 179.426987 -1.618051 88.068391 -2.510138 0.842535 1.269954 -5.165135 -3.424428 -1.169233 4.025888 9.138539 -13.862285 0.000000 -0.000000 0.000000 -3.168554 2.145136 -9.047945 -1.137788 -1.887436 29.682717 3.752444 -5.356371 -23.237489 0.000000 -0.000000 0.000000 -1.508925 0.613669 6.194714 -0.263162 -0.682551 -3.567902 -1.826094 0.051977 4.324914 -0.357163 -13.024710 6.610236 3.736570 -18.792069 -0.098990 -17.997534 1.341363 1.577312 -60.077793 -9.661316 15.686106 7.374418 -34.730964 12.186110 10.529348 -3.989959 -8.179629 15.829849 4.352733 -1.828446 68.446729 1.354588 18.522710 -4.839367 26.877314 12.320210 -5.816825 6.291292 -2.633211 
-0.118983 -0.512285 0.992451 179.087424 -1.650320 88.181383 -2.191340 0.849252 0.862577 -5.057952 -3.040365 -0.806961 3.764223 9.005128 -13.844723 0.000000 -0.000000 0.000000 -2.770844 1.527782 -7.649884 -1.360015 -2.598286 26.577854 3.363132 -5.124718 -23.339389 0.000000 -0.000000 0.000000 -1.191796 0.990872 5.983716 -0.364821 -0.637678 -3.643277 -1.759943 0.099023 4.238420 -0.438606 -13.080318 6.730652 3.949119 -18.582670 -0.085580 -17.972813 1.433427 1.670418 -60.748734 -9.473232 15.619466 7.260078 -34.354408 12.579681 10.478850 -4.129296 -8.227593 15.533203 4.366097 -1.772083 68.601139 1.478710 18.411418 -4.455249 26.867902 13.308437 -6.109386 6.635459 -2.618747 
-0.112530 -0.514903 0.993122 178.425351 -1.693959 88.638564 -1.895714 0.804475 0.002057 -4.890978 -2.530590 -0.319435 3.588575 8.984905 -13.791554 0.000000 -0.000000 0.000000 -2.292046 1.045341 -6.727385 -1.527126 -2.635646 23.477156 3.029864 -4.868954 -23.172532 0.000000 -0.000000 0.000000 -0.894922 1.431074 5.689164 -0.463644 -0.462452 -3.999408 -1.728800 0.173601 4.163707 -0.408293 -13.169687 6.694815 4.085729 -18.340292 -0.041286 -18.041513 1.733685 1.884247 -61.209239 -9.021861 15.568608 7.005689 -34.331065 13.169978 10.176372 -4.162361 -8.164473 15.232122 4.285384 -1.628360 68.740079 1.800027 18.295985 -4.129387 26.830848 13.703438 -5.998973 6.790808 -2.922101 
